<svg version="1.1" id="Layer_1" xmlns:x="ns_extend;" xmlns:i="ns_ai;" xmlns:graph="ns_graphs;" xmlns="http://www.w3.org/2000/svg" xmlns:xlink="http://www.w3.org/1999/xlink" x="0px" y="0px" viewBox="0 0 454.1 87" style="enable-background:new 0 0 454.1 87;" xml:space="preserve">
 <style type="text/css">
  .st0{fill:#FF2B85;}
	.st1{fill:#FFFFFF;}
 </style>
 <metadata>
  <sfw xmlns="ns_sfw;">
   <slices>
   </slices>
   <sliceSourceBounds bottomLeftOrigin="true" height="87" width="454.1" x="-290.3" y="0.6">
   </sliceSourceBounds>
  </sfw>
 </metadata>
 <g>
  <path class="st0" d="M70.2,87H18.8C8.5,87,0,78.7,0,68.6V18.4C0,8.3,8.5,0,18.8,0h51.4C80.6,0,89,8.3,89,18.4v50.2
		C89,78.7,80.6,87,70.2,87z">
  </path>
  <path class="st1" d="M73,34.4C73,34.4,73,34.4,73,34.4c-0.5-1.1,0.2-1.9,0.2-1.9h0c0.2-0.2,0.4-0.4,0.5-0.7
		c1.9-2.6,2.4-6.1,1.4-9.2c-0.3-0.8-2.1-0.4-2.6-1.1c-0.2-0.3-0.1-0.8,0-1.3c0-0.1,0.1-0.3,0.1-0.4c0.1-0.5,0.1-1-0.1-1.3
		c-0.3-0.3-0.6-0.5-0.9-0.8l-0.2-0.1c-2.1-1.5-4.7-2.2-7.3-2.1c-2.3,0.1-4.7,0.8-6.5,2.3l0,0c0,0-1.3,1-2.9,0.4c0,0-0.1,0-0.1,0
		c-1.8-0.6-3.6-1.1-5.4-1.4c-1.5-0.2-3-0.3-4.6-0.3c-3.5,0-6.9,0.6-10.1,1.7c0,0-0.1,0-0.1,0c-1.7,0.5-2.8-0.4-2.8-0.4
		c-3.3-2.8-9.9-3.5-14.2,0c-4.7,3.9-5,10.7-1.5,14.6h0c0,0,0.8,0.8,0.3,1.9v0c-2,4.1-3.2,8.6-3.2,13.3C12.9,64.1,27,76,44.5,76
		c17.5,0,31.6-12,31.6-28.4C76.1,43,75,38.5,73,34.4z M44.3,46.1c2.5,0,4.5,0.5,4.5,1.5c0,0.9-2,3.1-4.5,3.1c-2.5,0-4.5-2.1-4.5-3.1
		C39.8,46.7,41.8,46.1,44.3,46.1z M18.9,28.8c-0.2-0.1-0.3-0.3-0.4-0.4c0-0.1-0.1-0.1-0.1-0.2c-0.8-1.3-0.9-3-0.5-4.5
		c0.9-2.9,4.1-4.6,7.1-4.2c0.8,0.1,1.6,0.3,2.3,0.7c0.3,0.2,0.6,0.4,0.8,0.6c0.1,0.1,0.2,0.2,0.2,0.3c0,0.2,0,0.4-0.2,0.5
		c-0.1,0.1-0.3,0.2-0.5,0.3c-2.9,1.7-5.2,4-7.4,6.5C19.8,28.8,19.4,29.2,18.9,28.8z M26.6,52.2c-2.6-0.3-4.9-3-5.8-5.7
		c-0.4-1.2-1.3-6.7,2.8-10.7c1.3-1.3,3.2-2.5,5.9-3.3c0,0,1.1-0.3,2.6-0.3c1.3,0,2.9,0.2,4.1,1.1c2.6,1.9,2.7,5,1.1,6.7
		c-1.5,1.6-5.1,5.3-6,8.4C30.5,51.3,29.2,52.5,26.6,52.2z M44.3,61.3C44.3,61.3,44.3,61.3,44.3,61.3C44.3,61.3,44.3,61.3,44.3,61.3
		c-5.1,0-9.2-3.5-9.2-7c0-1.2,0.5-1.8,1.9-1.5c0.8,0.2,4,1,6.9,1c0.1,0,0.3,0,0.4,0c0,0,0,0,0,0c0,0,0,0,0,0c0.1,0,0.2,0,0.4,0
		c2.9,0,6.1-0.8,6.9-1c1.3-0.3,1.9,0.3,1.9,1.5C53.5,57.8,49.4,61.3,44.3,61.3z M67.7,46.4c-0.9,2.7-3.1,5.4-5.8,5.7
		c-2.6,0.3-3.9-0.9-4.8-3.9c-0.9-3-4.4-6.8-6-8.4c-1.5-1.6-1.5-4.8,1.1-6.7c1.2-0.9,2.8-1.1,4.1-1.1c1.5,0,2.6,0.3,2.6,0.3
		c2.6,0.8,4.5,1.9,5.9,3.3C69,39.7,68.1,45.2,67.7,46.4z M70.6,28.2c0,0.1-0.1,0.1-0.1,0.2c-0.1,0.2-0.2,0.3-0.4,0.4
		c-0.5,0.4-0.9,0-1.3-0.4c-2.2-2.4-4.5-4.8-7.4-6.5c-0.2-0.1-0.3-0.2-0.5-0.3c-0.1-0.1-0.2-0.3-0.2-0.5c0-0.1,0.1-0.2,0.2-0.3
		c0.2-0.2,0.5-0.4,0.8-0.6c0.7-0.4,1.5-0.6,2.3-0.7c3-0.4,6.2,1.3,7.1,4.2C71.6,25.2,71.4,26.9,70.6,28.2z">
  </path>
  <path class="st1" d="M33.1,40.6c0.9,0,1.7-0.7,1.7-1.5c0-0.8-0.8-1.5-1.7-1.5c-0.9,0-1.7,0.7-1.7,1.5C31.4,40,32.1,40.6,33.1,40.6z
		">
  </path>
  <path class="st1" d="M55.9,37.6c-0.9,0-1.7,0.7-1.7,1.5c0,0.8,0.8,1.5,1.7,1.5c1,0,1.7-0.7,1.7-1.5C57.7,38.3,56.9,37.6,55.9,37.6z
		">
  </path>
  <path class="st0" d="M111,34.4h6.3v-5.7c0-6.9,3.9-11.5,11.8-11.5L133,18v6.9l-4.3-0.8c-2.4,0-3.5,1.5-3.5,3.8v6.5h7.9v6.9h-7.9
		v29.2h-7.9V41.3H111V34.4z">
  </path>
  <path class="st0" d="M153.4,33.6c10.2,0,19.3,7.7,19.3,18.8s-9,18.8-19.3,18.8c-10.2,0-19.3-7.7-19.3-18.8S143.2,33.6,153.4,33.6z
		 M153.4,64.4c7.5,0,11.4-5.4,11.4-11.9c0-6.5-3.9-11.9-11.4-11.9c-7.5,0-11.4,5.4-11.4,11.9C142,59,145.9,64.4,153.4,64.4z">
  </path>
  <path class="st0" d="M195.4,33.6c10.2,0,19.3,7.7,19.3,18.8s-9,18.8-19.3,18.8c-10.2,0-19.3-7.7-19.3-18.8S185.2,33.6,195.4,33.6z
		 M195.4,64.4c7.5,0,11.4-5.4,11.4-11.9c0-6.5-3.9-11.9-11.4-11.9c-7.5,0-11.4,5.4-11.4,11.9C184,59,187.9,64.4,195.4,64.4z">
  </path>
  <path class="st0" d="M255.8,70.5h-7.1l-0.8-3.1l-0.4-0.4l-0.4,0.4c-2.4,2.3-6.3,3.8-10.2,3.8c-10.2,0-18.9-7.7-18.9-18.8
		c0-11.1,8.6-18.8,18.9-18.8c3.9,0,7.9,1.5,10.2,3.8l0.4,0.4l0.4-0.4V17.2h7.9L255.8,70.5L255.8,70.5z M237.4,40.6
		c-7.5,0-11.5,5.4-11.5,11.9c0,6.5,4,11.9,11.5,11.9c6.7,0,11.4-5.4,11.4-11.9C248.8,45.9,244,40.6,237.4,40.6z">
  </path>
  <path class="st0" d="M263.7,34.4h7.1l0.7,3.1l0.5,0.4l0.4-0.4c2.4-2.3,6.3-3.8,10.2-3.8c10.2,0,18.9,7.7,18.9,18.8
		c0,11.1-8.6,18.8-18.9,18.8c-3.9,0-7.9-1.5-10.2-3.8L272,67l-0.5,0.4v19.4h-7.8L263.7,34.4L263.7,34.4z M282.2,64.4
		c7.5,0,11.4-5.4,11.4-11.9c0-6.5-3.9-11.9-11.4-11.9c-6.7,0-11.4,5.4-11.4,11.9C270.8,59,275.5,64.4,282.2,64.4z">
  </path>
  <path class="st0" d="M321.2,48.1h6.4v-1.6c0-4.3-3-6.4-7.3-6.4c-3.4,0-5.7,1.6-7,4.8l-7-1.4c1.6-6.1,7-10,14.1-10
		c9.9,0,14.9,4.8,14.9,14.4v22.6h-6.5l-0.7-4.8c-2.6,3.5-6.4,5.4-11.5,5.4c-6.6,0-11.5-3.8-11.5-11.1
		C305.1,52.6,311.5,48.1,321.2,48.1z M317.9,64.4c2.6,0,4.9-0.8,6.8-2.4c2-1.7,3-3.9,3-6.9v-0.8h-6.7c-4.7,0-7.7,2.2-7.7,5.6
		C313.2,62.6,314.9,64.4,317.9,64.4z">
  </path>
  <path class="st0" d="M342.6,34.4h7.1l0.8,3.1l0.4,0.4l0.4-0.4c1.6-2.3,5.5-3.8,8.6-3.8c9.4,0,14.9,6.1,14.9,14.6v22.3H367V48.2
		c-0.2-4.9-2.7-7.7-7.9-7.7c-4.6,0-8.5,3.7-8.6,8.1v21.8h-7.9V34.4z">
  </path>
  <path class="st0" d="M417.6,70.5h-7.1l-0.8-3.1l-0.4-0.4l-0.4,0.4c-2.4,2.3-6.3,3.8-10.2,3.8c-10.2,0-18.9-7.7-18.9-18.8
		c0-11.1,8.6-18.8,18.9-18.8c3.9,0,7.9,1.5,10.2,3.8l0.4,0.4l0.4-0.4V17.2h7.9V70.5z M399.1,40.6c-7.5,0-11.5,5.4-11.5,11.9
		c0,6.5,4,11.9,11.5,11.9c6.7,0,11.4-5.4,11.4-11.9C410.5,45.9,405.8,40.6,399.1,40.6z">
  </path>
  <path class="st0" d="M440,48.1h6.4v-1.6c0-4.3-3-6.4-7.3-6.4c-3.4,0-5.7,1.6-7,4.8l-7-1.4c1.6-6.1,7-10,14.1-10
		c9.9,0,14.9,4.8,14.9,14.4v22.6h-6.5l-0.7-4.8c-2.6,3.5-6.4,5.4-11.5,5.4c-6.6,0-11.5-3.8-11.5-11.1
		C423.9,52.6,430.3,48.1,440,48.1z M436.7,64.4c2.6,0,4.9-0.8,6.8-2.4c2-1.7,3-3.9,3-6.9v-0.8h-6.7c-4.7,0-7.7,2.2-7.7,5.6
		C432,62.6,433.6,64.4,436.7,64.4z">
  </path>
 </g>
</svg>